<?xml version="1.0" ?>
<!-- Uploaded to: SVG Repo, www.svgrepo.com, Generator: SVG Repo Mixer Tools -->
<svg width="800px" height="800px" viewBox="0 0 96 96" version="1.1" xml:space="preserve" xmlns="http://www.w3.org/2000/svg" xmlns:xlink="http://www.w3.org/1999/xlink">
<style type="text/css">
	.st0{display:none;}
	.st1{fill:#FFFFFF;}
	.st2{fill:none;stroke:#000000;stroke-width:2;stroke-linecap:round;stroke-linejoin:round;stroke-miterlimit:10;}
	.st3{fill:#FFF8FA;}
	.st4{stroke:#000000;stroke-width:2;stroke-miterlimit:10;}
	.st5{fill:none;stroke:#000000;stroke-miterlimit:10;}
	.st6{fill:none;stroke:#000000;stroke-width:2;stroke-linecap:round;stroke-miterlimit:10;}
	.st7{fill:#231F20;stroke:#000000;stroke-width:0;stroke-miterlimit:10;}
	.st8{fill:#FF0D5C;}
	.st9{display:inline;}
	.st10{fill:none;stroke:#00D8E9;stroke-width:0.25;stroke-linecap:round;stroke-linejoin:round;stroke-miterlimit:10;}
	.st11{fill:none;stroke:#00D8E9;stroke-width:0.25;stroke-linejoin:round;stroke-miterlimit:10;}
	.st12{fill:none;stroke:#00D8E9;stroke-linecap:round;stroke-linejoin:round;stroke-miterlimit:10;}
	.st13{fill:none;stroke:#00D8E9;stroke-linejoin:round;stroke-miterlimit:10;}
</style>
<g id="banana"/>
<g id="Layer_12"/>
<g id="grape"/>
<g id="assasin"/>
<g id="gold"/>
<g id="mage_ass"/>
<g id="fighter"/>
<g id="SUPPORT"/>
<g id="marksman"/>
<g id="JUNGLE"/>
<g id="TANK"/>
<g class="st0" id="creditcard"/>
<g class="st0" id="CAKE"/>
<g class="st0" id="TOPI"/>
<g class="st0" id="SPATU"/>
<g class="st0" id="SETTING"/>
<g class="st0" id="CART"/>
<g class="st0" id="k3"/>
<g class="st0" id="computer"/>
<g class="st0" id="phone"/>
<g class="st0" id="location"/>
<g id="koper">
<g id="Layer_29"/>
<g>
<path d="M67.8,64.7C67.8,64.7,67.8,64.7,67.8,64.7c-10.2,0.6-20.7-0.7-28.3-2.1c-0.2-3.5-0.5-25.1,18.3-34.5    C74.1,37.5,67.9,64.4,67.8,64.7z M32,44.2l0.1-0.3c0-0.1,1.9-9.4,13.8-12.5c0.7-0.2,1.4-0.5,2-0.7c0.8-0.3,1.5-0.6,2.2-0.7    c0.5-0.1,0.9-0.2,1.3-0.2c-13.7,10.5-14,28-13.9,32.4c-3.9-0.7-6.8-1.5-8.2-1.8c0.1-0.6,0.1-1.3,0.2-2.1C30,54,30.7,46.8,32,44.2z     M65,69.9c-5,2.2-9.2,3.6-10.6,3.6l-0.1,0c-3.7,0.4-7.6,0.4-9.6,0C42.4,73,36,71.3,31,69.8c-0.1,0-1.8-0.5-4.3-0.5    c-1.4,0-3.1,0.2-4.9,0.6c-0.6,0.2-5.4,1.8-6.7,2.3c0.3-0.2,0.6-0.5,0.9-0.7c6.9-4.6,11.1-7.7,12.6-9.3c3.3,0.8,18.6,4.5,34.3,4.5    c2.3,0,4.7-0.1,7-0.3C68.8,67.6,67.2,68.8,65,69.9z M82.8,58.5c-0.5,3.5-0.9,5.9-1.2,7.1c-0.7,0.1-2.9,0-8.3-1.4c0,0,0,0,0,0    c0,0,0,0,0,0c-0.1,0-0.2,0-0.3,0c0,0,0,0,0,0c-1,0.1-2,0.2-3,0.3c0.8-3.7,4.3-23.4-6.2-34.4c1.5,0.6,3.1,1.3,4.6,2l0.2,0.1    C68.6,32.3,85,36.8,82.8,58.5z"/>
<path class="st1" d="M56.5,36.7c-1.3,0-2.2,0.6-2.2,1.4c0,0.2,0.1,0.8,0.9,0.9c0.3,0.1,0.8,0.1,1.3,0.1c0,0,0.1,0,0.1,0    c0.5,0,0.9,0,1.2-0.1c0.8-0.2,0.9-0.7,0.9-0.9C58.7,37.3,57.7,36.7,56.5,36.7z"/>
<path class="st1" d="M71.8,35.7c-1.3,0-2.2,0.6-2.2,1.4c0,0.2,0.1,0.8,0.9,0.9c0.3,0.1,0.8,0.1,1.3,0.1c0,0,0.1,0,0.1,0    c0.5,0,0.9,0,1.2-0.1c0.8-0.2,0.9-0.7,0.9-0.9C74,36.3,73,35.7,71.8,35.7z"/>
<path class="st1" d="M39.6,37.3c0.3,0.1,0.8,0.1,1.3,0.1c0,0,0,0,0.1,0c0.5,0,0.9,0,1.2-0.1c0.8-0.2,0.9-0.7,0.9-0.9    c0-0.8-0.9-1.4-2.2-1.4c-1.3,0-2.2,0.6-2.2,1.4C38.7,36.6,38.8,37.2,39.6,37.3z"/>
</g>
</g>
<g class="st0" id="guide"/>
<g id="MAGICAL"/>
<g id="phisical"/>
<g id="mango"/>
<g id="orange"/>
</svg>